<svg xmlns="http://www.w3.org/2000/svg" width="639.59" height="132.48" viewBox="0 0 639.59 132.48">
  <defs>
    <style>
      .cls-1 {
        fill: #00a4ef;
      }
    </style>
  </defs>
  <title>test</title>
  <g id="LOG">
    <g>
      <path d="M363.42,90.85a8.24,8.24,0,1,1,16.48,0v99.54h57.66a8.23,8.23,0,1,1,0,16.46h-65.9a8.31,8.31,0,0,1-3.26-.62,8.13,8.13,0,0,1-4.35-4.35,8.3,8.3,0,0,1-.62-3.26Z" transform="translate(-96.49 -78.41)"/>
      <path d="M600.5,144.74q0,25.7-18.26,43.95a59.85,59.85,0,0,1-43.91,18.17q-25.8,0-44-18.17a59.84,59.84,0,0,1-18.18-43.95,59.75,59.75,0,0,1,18.18-43.87q18.26-18.24,44-18.25t43.91,18.25a62.24,62.24,0,0,1,13.72,20A61.18,61.18,0,0,1,600.5,144.74ZM538.33,99.08a45.1,45.1,0,0,0-17.6,3.34A46,46,0,0,0,506,112.51a43.25,43.25,0,0,0-13.37,32.22,45.69,45.69,0,1,0,78-32.22A44.1,44.1,0,0,0,538.33,99.08Z" transform="translate(-96.49 -78.41)"/>
      <path d="M735.7,187.13a8.28,8.28,0,0,1-2.56,5.9A61.06,61.06,0,0,1,694,206.85q-25.8,0-44-18.17a59.84,59.84,0,0,1-18.18-43.95,59.75,59.75,0,0,1,18.18-43.87q18.26-18.24,44-18.25,22.07,0,39.87,14.52a7.36,7.36,0,0,1,2.18,5.67,8.31,8.31,0,0,1-.62,3.26,8.09,8.09,0,0,1-1.75,2.6,8,8,0,0,1-2.64,1.75,8.4,8.4,0,0,1-3.22.62,8.07,8.07,0,0,1-5.67-2.33,44.68,44.68,0,0,0-13-7.14A45.51,45.51,0,0,0,694,99.08a45.62,45.62,0,0,0-45.69,45.65A45.48,45.48,0,0,0,694,190.39,44.5,44.5,0,0,0,719.22,183V158.94H697.77a8.09,8.09,0,0,1-8.24-8.23,8.39,8.39,0,0,1,.62-3.22,8,8,0,0,1,1.75-2.64,8.07,8.07,0,0,1,2.6-1.75,8.34,8.34,0,0,1,3.26-.62h29.76a7.54,7.54,0,0,1,3.11.66,8.66,8.66,0,0,1,2.6,1.79,8.51,8.51,0,0,1,1.79,2.64,7.79,7.79,0,0,1,.66,3.14Z" transform="translate(-96.49 -78.41)"/>
    </g>
  </g>
  <g id="CB">
    <g>
      <path class="cls-1" d="M96.49,145.1a59.88,59.88,0,0,1,6.2-26.5,66.09,66.09,0,0,1,15.78-20.46,73,73,0,0,1,21.23-13A60.63,60.63,0,0,1,162,80.63h16.76V97H164.79q-16.26.77-27.52,7.94a45.17,45.17,0,0,0-16.71,18.17,51.52,51.52,0,0,0-5.45,23.16,61.6,61.6,0,0,0,4,20.73q4,11,15,19.3t30.34,8.28h14.35v16.33H161.25q-18.67,0-33.45-8.69a61.12,61.12,0,0,1-23-23.8A68.23,68.23,0,0,1,96.49,145.1Z" transform="translate(-96.49 -78.41)"/>
      <path class="cls-1" d="M223.76,210.89V116.11A40.25,40.25,0,0,1,229.48,98a39.4,39.4,0,0,1,14.17-13.91,43,43,0,0,1,21-5.67A53.46,53.46,0,0,1,286,82.52a35.12,35.12,0,0,1,15.19,12.14,34.55,34.55,0,0,1,6.06,19.05Q307,125.05,304,130.56a35.56,35.56,0,0,1-9.6,10.64q18,9.84,18.62,30.49,0,12.39-5.13,21.25a33.57,33.57,0,0,1-14,13.41,42.72,42.72,0,0,1-19.73,4.54H247.92V194.55H273q22.52-1.59,22.52-21.37,0-7.62-3.43-12.39a19.39,19.39,0,0,0-9-6.9A33.69,33.69,0,0,0,271,151.77H247.92V135.44H268.4q11.63-.82,16.51-6.81a21.52,21.52,0,0,0,4.88-14,20.81,20.81,0,0,0-3.59-11.16,19,19,0,0,0-8.58-6.56,32.77,32.77,0,0,0-12.22-2.15q-11.54.27-17.64,7a26.2,26.2,0,0,0-6.7,16.6v92.55Z" transform="translate(-96.49 -78.41)"/>
    </g>
  </g>
</svg>
