<?xml version="1.0" standalone="no"?>
<!DOCTYPE svg PUBLIC "-//W3C//DTD SVG 20010904//EN"
 "http://www.w3.org/TR/2001/REC-SVG-20010904/DTD/svg10.dtd">
<svg version="1.0" xmlns="http://www.w3.org/2000/svg"
 width="826.000000pt" height="286.000000pt" viewBox="0 0 826.000000 286.000000"
 preserveAspectRatio="xMidYMid meet">

<g transform="translate(0.000000,286.000000) scale(0.100000,-0.100000)"
fill="#000000" stroke="none">
<path fill="#00a4ef" d="M2309 2740 c-71 -11 -157 -41 -217 -76 -72 -42 -172 -149 -209 -225
-63 -127 -63 -125 -63 -871 l0 -678 120 0 119 0 3 683 3 682 27 58 c38 81 78
129 135 159 139 75 338 54 438 -47 133 -133 81 -387 -93 -451 -36 -13 -90 -18
-229 -22 l-183 -4 0 -113 0 -114 213 -4 c127 -2 227 -8 249 -16 61 -20 131
-73 163 -125 28 -47 30 -55 30 -155 0 -90 -3 -112 -22 -146 -64 -120 -166
-155 -455 -155 l-178 0 0 -116 0 -116 238 5 c254 5 296 12 401 63 69 34 170
132 204 199 123 244 67 536 -130 672 -29 20 -53 39 -53 41 0 3 25 31 55 63 67
71 91 122 106 225 38 275 -112 494 -384 563 -90 23 -215 32 -288 21z"/>
<path fill="#00a4ef" d="M930 2709 c-242 -26 -496 -173 -652 -379 -61 -80 -130 -221 -154
-315 -27 -106 -25 -321 4 -439 57 -226 186 -412 373 -536 159 -105 287 -139
562 -147 l187 -6 0 115 0 115 -172 6 c-276 9 -391 49 -528 187 -126 126 -185
281 -184 490 0 204 56 342 194 480 143 144 281 197 543 207 l147 6 0 114 0
113 -122 -1 c-68 -1 -157 -5 -198 -10z"/>
<path d="M3667 2632 c-16 -17 -17 -90 -17 -844 l0 -825 23 -21 23 -22 526 0
c607 0 558 -9 558 101 0 37 -5 70 -12 77 -9 9 -126 12 -465 12 l-453 0 0 753
c0 868 10 787 -102 787 -50 0 -69 -4 -81 -18z"/>
<path d="M7896 2346 l-46 -55 -73 34 c-91 42 -156 55 -265 55 -163 0 -293 -51
-402 -159 -113 -112 -169 -258 -170 -442 -1 -343 244 -598 574 -599 143 -1
278 -50 346 -127 105 -120 87 -325 -37 -419 -83 -63 -141 -78 -298 -78 -122 0
-147 3 -196 22 -119 47 -179 116 -202 230 -17 83 -27 92 -102 92 -87 0 -97
-12 -84 -110 18 -150 114 -282 257 -354 105 -53 185 -69 332 -69 197 -1 331
45 440 149 99 94 140 195 140 345 0 167 -66 296 -194 380 -36 24 -66 46 -65
49 0 3 24 23 52 46 67 52 148 173 178 266 20 60 24 94 24 188 0 137 -22 218
-85 323 l-41 68 58 65 57 66 -49 44 c-69 60 -90 58 -149 -10z m-216 -177 c87
-30 176 -116 209 -202 56 -151 43 -303 -38 -420 -146 -212 -439 -243 -612 -65
-134 138 -151 397 -37 565 91 134 290 185 478 122z"/>
<path d="M5695 2170 c-158 -32 -318 -145 -398 -283 -76 -129 -107 -338 -73
-497 61 -289 304 -480 610 -480 189 1 332 56 452 175 121 121 177 265 176 455
0 131 -20 219 -74 322 -77 148 -227 264 -389 303 -68 16 -236 18 -304 5z m286
-191 c172 -49 285 -204 297 -405 13 -244 -109 -417 -330 -469 -191 -45 -390
29 -485 179 -115 181 -84 459 67 600 88 83 223 130 340 119 25 -3 75 -13 111
-24z"/>
</g>
</svg>
